<svg id="Line_gradient" height="512" viewBox="0 0 64 64" width="512" xmlns="http://www.w3.org/2000/svg" xmlns:xlink="http://www.w3.org/1999/xlink" data-name="Line gradient"><linearGradient id="linear-gradient" gradientUnits="userSpaceOnUse" x1="4.837" x2="59.163" y1="32" y2="32"><stop offset="0" stop-color="#366cae"/><stop offset="1" stop-color="#182f5b"/></linearGradient><path d="m21.73178 48.72923-4.90565-.7128-2.19354-4.44519a1.05976 1.05976 0 0 0 -1.825 0l-2.19354 4.44519-4.90566.7128a1.01726 1.01726 0 0 0 -.56428 1.73506l3.54963 3.46071-.838 4.88579a1.01749 1.01749 0 0 0 1.47626 1.07241l4.38807-2.3068 4.38807 2.3068a1.01749 1.01749 0 0 0 1.47627-1.07243l-.838-4.88579 3.54959-3.46069a1.01725 1.01725 0 0 0 -.56428-1.73506zm-4.78892 4.11239a1.01872 1.01872 0 0 0 -.29257.90007l.58017 3.3812-3.037-1.59647a1.01822 1.01822 0 0 0 -.94676 0l-3.037 1.59647.58017-3.3812a1.01875 1.01875 0 0 0 -.29257-.90007l-2.4568-2.39521 3.39561-.49325a1.01773 1.01773 0 0 0 .766-.55683l1.518-3.07621 1.518 3.07621a1.01773 1.01773 0 0 0 .766.55683l3.39561.49325zm4.22114-10.22211 22.88465-22.88512a1.01719 1.01719 0 0 1 1.43852 1.43852l-22.88463 22.88509a1.01718 1.01718 0 0 1 -1.43854-1.43849zm19.9296 5.45106-3.5029-.50914-1.56717-3.17407a1.05893 1.05893 0 0 0 -1.82447 0l-1.56618 3.17407-3.5029.50914a1.01764 1.01764 0 0 0 -.56378 1.73556l2.5348 2.47071-.59855 3.4885a1.01761 1.01761 0 0 0 1.47627 1.07243l3.13284-1.64714 3.13335 1.64714a1.01748 1.01748 0 0 0 1.47626-1.07243l-.59855-3.4885 2.53479-2.47071a1.01764 1.01764 0 0 0 -.56379-1.73556zm-3.7746 3.12243a1.01846 1.01846 0 0 0 -.29207.90056l.34025 1.98392-1.78218-.93683a1.01822 1.01822 0 0 0 -.94676 0l-1.78175.93682.34075-1.98392a1.02016 1.02016 0 0 0 -.29257-.90056l-1.442-1.40524 1.99236-.28959a1.01773 1.01773 0 0 0 .76595-.55683l.89063-1.80559.89162 1.80559a1.01609 1.01609 0 0 0 .76546.55683l1.99236.28959zm21.546-23.12008-14.23369 14.23316a1.01719 1.01719 0 1 1 -1.43852-1.43852l14.23366-14.23316a1.01719 1.01719 0 1 1 1.43855 1.43852zm-49.1788 3.44777-.55584 3.24113a1.01749 1.01749 0 0 0 1.47627 1.07243l2.91081-1.52992 2.91031 1.52992a1.01749 1.01749 0 0 0 1.47625-1.07243l-.55584-3.24113 2.35448-2.29487a1.01733 1.01733 0 0 0 -.56329-1.73556l-3.25454-.47288-1.45491-2.94857a1.01733 1.01733 0 0 0 -1.82447-.00049l-1.4559 2.94906-3.254.47288a1.01764 1.01764 0 0 0 -.56378 1.73556zm2.28543-2.56658a1.01664 1.01664 0 0 0 .76545-.55634l.78036-1.58058.77936 1.58009a1.01777 1.01777 0 0 0 .766.55683l1.744.25333-1.26168 1.22939a1.01909 1.01909 0 0 0 -.29307.90056l.29795 1.73661-1.55922-.8196a1.01632 1.01632 0 0 0 -.94676 0l-1.55972.82009.298-1.73705a1.02016 1.02016 0 0 0 -.29257-.90056l-1.26168-1.22939zm17.134-14.81583a1.01692 1.01692 0 0 1 0-1.43851l5.305-5.305a1.01719 1.01719 0 1 1 1.43852 1.43852l-5.305 5.305a1.0169 1.0169 0 0 1 -1.43851 0zm-10.62545 10.625a1.01693 1.01693 0 0 1 0-1.43852l6.447-6.447a1.01718 1.01718 0 0 1 1.43851 1.43852l-6.447 6.447a1.01694 1.01694 0 0 1 -1.43852 0zm28.45366-7.16607a1.0173 1.0173 0 1 1 1.01729 1.01729 1.0173 1.0173 0 0 1 -1.01725-1.01733zm-4.74871 26.73433a1.0173 1.0173 0 1 1 -1.0173-1.01729 1.01735 1.01735 0 0 1 1.0173 1.01729zm7.95871-29.94427a1.0173 1.0173 0 1 1 1.0173 1.01729 1.01726 1.01726 0 0 1 -1.0173-1.01729zm-23.42556 1.12073a1.0173 1.0173 0 1 1 1.0173 1.0173 1.01731 1.01731 0 0 1 -1.0173-1.0173zm10.49072-10.49071a1.0173 1.0173 0 1 1 1.0173 1.0173 1.0173 1.0173 0 0 1 -1.0173-1.0173z" fill="url(#linear-gradient)"/></svg>